<?xml version="1.0" encoding="utf-8"?>
<!-- Generator: Adobe Illustrator 24.1.3, SVG Export Plug-In . SVG Version: 6.00 Build 0)  -->
<svg version="1.1" id="Layer_1" xmlns="http://www.w3.org/2000/svg" xmlns:xlink="http://www.w3.org/1999/xlink" x="0px" y="0px"
	 viewBox="0 0 184.25 164.41" style="enable-background:new 0 0 184.25 164.41;" xml:space="preserve">
<style type="text/css">
	.st0{fill:#231F20;}
	.st1{fill:#FF671D;}
	.st2{fill:#00ABC7;}
	.st3{fill:#929396;}
	.st4{fill:#FFFFFF;}
</style>
<g>
	<g>
		<polygon class="st0" points="89.84,39.82 122.24,39.82 147.33,144.79 114.94,144.79 		"/>
		<polygon class="st0" points="77.49,21.75 98.5,144.79 66.1,144.79 45.09,21.75 		"/>
		<polygon class="st1" points="17.26,144.79 49.66,144.79 77.49,21.75 47.81,9.76 		"/>
		<polygon class="st2" points="66.1,144.79 98.5,144.79 122.24,39.82 92.56,27.83 		"/>
		<polygon class="st3" points="137.31,45.91 114.94,144.79 147.33,144.79 166.99,57.9 		"/>
	</g>
	<g>
		<polygon class="st0" points="89.84,39.82 122.24,39.82 147.33,144.79 114.94,144.79 		"/>
		<polygon class="st0" points="77.49,21.75 98.5,144.79 66.1,144.79 45.09,21.75 		"/>
		<polygon class="st1" points="17.26,144.79 49.66,144.79 77.49,21.75 47.81,9.76 		"/>
		<polygon class="st2" points="66.1,144.79 98.5,144.79 122.24,39.82 92.56,27.83 		"/>
		<polygon class="st3" points="137.31,45.91 114.94,144.79 147.33,144.79 166.99,57.9 		"/>
	</g>
	<g>
		<polygon class="st0" points="89.84,39.82 122.24,39.82 147.33,144.79 114.94,144.79 		"/>
		<polygon class="st0" points="77.49,21.75 98.5,144.79 66.1,144.79 45.09,21.75 		"/>
		<polygon class="st1" points="17.26,144.79 49.66,144.79 77.49,21.75 47.81,9.76 		"/>
		<polygon class="st2" points="66.1,144.79 98.5,144.79 122.24,39.82 92.56,27.83 		"/>
		<polygon class="st3" points="137.31,45.91 114.94,144.79 147.33,144.79 166.99,57.9 		"/>
	</g>
	<g>
		<polygon class="st0" points="89.84,39.82 122.24,39.82 147.33,144.79 114.94,144.79 		"/>
		<polygon class="st0" points="77.49,21.75 98.5,144.79 66.1,144.79 45.09,21.75 		"/>
		<polygon class="st1" points="17.26,144.79 49.66,144.79 77.49,21.75 47.81,9.76 		"/>
		<polygon class="st2" points="66.1,144.79 98.5,144.79 122.24,39.82 92.56,27.83 		"/>
		<polygon class="st3" points="137.31,45.91 114.94,144.79 147.33,144.79 166.99,57.9 		"/>
	</g>
</g>
</svg>
